# Blender v2.77 (sub 0) OBJ File: ''
# www.blender.org
mtllib Crumpled Chinese Food.mtl
o crumpled_chinese_food
v 0.091729 0.114273 -0.065543
v 0.096644 0.076392 -0.083595
v 0.045079 0.110977 -0.060243
v 0.007858 0.093235 -0.080968
v -0.000012 0.024979 -0.095773
v 0.101331 0.020525 -0.070508
v 0.072915 0.001339 -0.074526
v -0.072939 0.001339 -0.074526
v -0.088798 0.036866 -0.098339
v -0.007309 0.008101 -0.081025
v -0.066768 0.040490 -0.075326
v 0.001989 0.040863 -0.060541
v 0.053022 0.144550 -0.031978
v 0.089091 0.136899 -0.032908
v 0.016953 0.152201 -0.031049
v -0.038574 0.124587 -0.063619
v -0.062578 0.110167 -0.079490
v 0.007742 0.096709 0.079714
v 0.083482 0.066485 0.076665
v 0.094401 0.072326 0.084720
v -0.003761 0.080146 0.078063
v -0.057184 0.113882 0.084817
v -0.073627 0.091051 0.077809
v -0.078720 0.070677 0.100565
v 0.007740 0.043458 0.079024
v 0.095447 0.045170 0.082505
v -0.057487 0.048590 0.079332
v 0.005412 0.038909 0.041711
v -0.094187 0.024979 0.092576
v 0.089232 0.079999 -0.000380
v 0.083257 0.070694 -0.081006
v 0.083257 0.070694 -0.001598
v -0.071229 0.110225 0.001458
v -0.066706 0.087428 0.002701
v -0.073627 0.091051 -0.081006
v 0.114457 0.089538 -0.066320
v 0.101815 0.087151 -0.001302
v 0.106738 0.094300 0.057174
v 0.043034 0.114053 0.040822
v 0.033806 0.126599 0.016588
v 0.030060 0.126464 -0.025516
v -0.000550 0.071903 -0.080432
v 0.061929 0.039346 -0.072235
v -0.011175 0.064139 -0.094060
v 0.103783 0.054943 -0.080664
v -0.085396 0.062389 -0.077133
v 0.077315 0.037101 0.076123
v -0.000012 0.024979 0.092576
v 0.094162 0.024979 0.092576
v -0.072939 0.001339 0.071329
v 0.072915 0.001339 0.071329
v -0.000012 0.001339 0.071329
v -0.031584 0.138394 -0.061831
v -0.046277 0.140276 0.020635
v -0.016391 0.147742 -0.036823
v -0.014225 0.148589 0.000338
v -0.026894 0.124260 0.083477
v 0.002756 0.134489 0.056238
v 0.081452 0.062946 0.009189
v 0.074340 0.046229 -0.001598
v 0.094162 0.024979 -0.001598
v 0.057239 0.005555 0.003833
v 0.085407 0.083829 0.074796
v 0.086482 0.126344 0.031687
v 0.053798 0.139514 0.023648
v 0.011543 0.111905 0.060585
v 0.021115 0.152683 0.015609
v -0.032197 0.126188 0.045289
v -0.069262 0.003831 -0.000054
v -0.000012 0.005332 -0.001598
v -0.086616 0.064521 0.004370
v -0.066111 0.046229 0.003821
v -0.094187 0.024979 -0.001598
vt 0.3354 0.3818
vt 0.3354 0.3091
vt 0.4907 0.3818
vt 0.4907 0.3091
vt 0.4907 0.0801
vt 0.3516 0.0801
vt 0.3530 0.0039
vt 0.6284 0.0039
vt 0.6299 0.0801
vt 0.4907 0.0039
vt 0.6313 0.1563
vt 0.4907 0.1563
vt 0.4907 0.4971
vt 0.4231 0.4971
vt 0.5586 0.4971
vt 0.6460 0.3818
vt 0.6460 0.3091
vt 0.4907 0.3091
vt 0.6406 0.2578
vt 0.6460 0.3091
vt 0.4907 0.2578
vt 0.3354 0.3091
vt 0.3408 0.2578
vt 0.3455 0.2070
vt 0.4907 0.2070
vt 0.6362 0.2070
vt 0.3503 0.1563
vt 0.4907 0.1563
vt 0.3516 0.0801
vt 0.8140 0.3110
vt 0.9639 0.2598
vt 0.9692 0.3110
vt 0.8140 0.2598
vt 0.6636 0.2598
vt 0.6587 0.3110
vt 0.1678 0.3091
vt 0.3179 0.2578
vt 0.3232 0.3091
vt 0.1678 0.2578
vt 0.0178 0.2578
vt 0.0125 0.3091
vt 0.9692 0.3833
vt 0.8140 0.3833
vt 0.6587 0.3833
vt 0.7461 0.4985
vt 0.8140 0.4985
vt 0.8818 0.4985
vt 0.3408 0.2578
vt 0.4907 0.2578
vt 0.6406 0.2578
vt 0.3503 0.1563
vt 0.4907 0.2070
vt 0.3455 0.2070
vt 0.6362 0.2070
vt 0.6313 0.1563
vt 0.4907 0.0801
vt 0.6299 0.0801
vt 0.3530 0.0039
vt 0.6284 0.0039
vt 0.4907 0.0039
vt 0.0125 0.3818
vt 0.1678 0.3818
vt 0.1002 0.4971
vt 0.1678 0.4971
vt 0.3232 0.3818
vt 0.2356 0.4971
vt 0.6733 0.1577
vt 0.8140 0.2090
vt 0.6685 0.2090
vt 0.8140 0.1577
vt 0.9595 0.2090
vt 0.9546 0.1577
vt 0.9531 0.0820
vt 0.8140 0.0820
vt 0.9517 0.0059
vt 0.8140 0.0059
vt 0.6748 0.0820
vt 0.6763 0.0059
vt 0.6460 0.3818
vt 0.5586 0.4971
vt 0.4907 0.4971
vt 0.4907 0.3818
vt 0.4231 0.4971
vt 0.3354 0.3818
vt 0.3333 0.8527
vt 0.3333 0.7148
vt 0.4709 0.7148
vt 0.4709 0.8527
vt 0.6089 0.7148
vt 0.6089 0.8527
vt 0.4709 0.9905
vt 0.3333 0.9905
vt 0.6089 0.9905
vt 0.0226 0.2070
vt 0.1678 0.2070
vt 0.3130 0.2070
vt 0.3083 0.1563
vt 0.1678 0.1563
vt 0.0274 0.1563
vt 0.1678 0.0801
vt 0.3069 0.0801
vt 0.3057 0.0039
vt 0.1678 0.0039
vt 0.0300 0.0039
vt 0.0287 0.0801
vn -0.1316 0.4125 -0.9014
vn 0.1026 0.6571 -0.7468
vn 0.2334 -0.1443 -0.9616
vn -0.0093 -0.6428 -0.7659
vn -0.0461 -0.5854 -0.8094
vn -0.0530 -0.5722 -0.8184
vn -0.0021 -0.6575 -0.7535
vn 0.0053 -0.6593 -0.7519
vn 0.1353 0.9506 -0.2793
vn 0.1414 0.9111 -0.3871
vn 0.0840 0.9066 -0.4135
vn 0.1147 0.9032 -0.4137
vn 0.1426 0.8993 -0.4135
vn 0.0551 0.6862 -0.7254
vn 0.1591 0.8173 -0.5538
vn -0.0036 0.7405 -0.6721
vn 0.0311 0.6431 -0.7652
vn 0.1256 0.6290 -0.7672
vn 0.1336 0.6258 -0.7684
vn 0.1327 0.6231 -0.7708
vn 0.1336 0.6259 -0.7684
vn 0.1339 0.6242 -0.7697
vn 0.0076 -0.1354 0.9908
vn -0.1271 -0.2107 0.9693
vn -0.2190 -0.6245 0.7497
vn 0.0961 0.0151 0.9953
vn -0.0306 -0.2426 0.9696
vn -0.0306 -0.2426 0.9697
vn 0.0557 0.3785 0.9239
vn 0.0962 0.0151 0.9953
vn 0.1268 0.2659 0.9556
vn 0.0387 -0.6801 0.7321
vn -0.0372 -0.1118 0.9930
vn 0.2088 -0.5847 0.7839
vn 0.0245 -0.9761 0.2160
vn 0.4679 -0.2521 0.8471
vn 0.8127 -0.5824 -0.0162
vn 0.9932 -0.0954 0.0666
vn 0.4028 -0.9122 0.0754
vn 0.9697 -0.2294 0.0840
vn 0.9617 -0.2546 -0.1020
vn 0.5297 -0.8413 -0.1080
vn -0.9981 -0.0615 0.0046
vn -0.9094 0.4115 0.0602
vn -0.8224 0.5573 0.1141
vn -0.9711 0.2369 -0.0306
vn -0.9190 0.3940 0.0136
vn -0.8589 0.5038 -0.0922
vn 0.5470 -0.8359 0.0458
vn 0.5375 -0.8390 0.0842
vn 0.5336 -0.8417 0.0824
vn 0.9953 -0.0058 0.0968
vn 0.9822 -0.0840 -0.1682
vn 0.8078 -0.5807 -0.1014
vn 0.9822 -0.0840 -0.1683
vn 0.4693 0.8780 0.0942
vn 0.5158 0.8529 0.0802
vn 0.4766 0.8790 0.0149
vn 0.4458 0.8871 0.1193
vn -0.0060 -0.0229 -0.9997
vn -0.0772 -0.2565 -0.9635
vn -0.0702 -0.2332 -0.9699
vn -0.0023 -0.0242 -0.9997
vn -0.0011 0.0571 -0.9984
vn -0.0017 0.0800 -0.9968
vn -0.0362 -0.8079 -0.5883
vn -0.0804 -0.5548 -0.8281
vn -0.1813 -0.4593 -0.8696
vn 0.0810 0.0026 -0.9967
vn -0.1268 -0.4155 -0.9007
vn 0.0962 -0.2137 -0.9722
vn -0.2171 -0.1381 -0.9663
vn -0.2213 -0.0408 -0.9744
vn 0.1211 0.1939 -0.9735
vn 0.0962 -0.2137 -0.9721
vn 0.1210 0.1939 -0.9735
vn 0.0769 0.8393 -0.5381
vn 0.2070 0.7719 -0.6011
vn 0.0769 0.8394 -0.5381
vn -0.2435 0.5950 0.7660
vn -0.4146 0.2366 0.8787
vn -0.0693 0.9552 0.2878
vn -0.0409 0.5760 0.8164
vn -0.2434 0.5950 0.7660
vn -0.0000 -0.2122 0.9772
vn -0.0409 0.5760 0.8165
vn -0.0000 0.0426 0.9991
vn 0.0000 -0.6685 0.7437
vn -0.0410 0.5759 0.8165
vn -0.6496 0.7570 -0.0700
vn -0.7367 0.6747 -0.0456
vn -0.5986 0.7957 -0.0927
vn -0.7366 0.6747 -0.0456
vn -0.4882 0.8656 0.1111
vn -0.3750 0.9240 -0.0750
vn -0.4649 0.8438 0.2680
vn -0.1911 0.9766 0.0982
vn -0.2036 0.9319 0.3003
vn -0.0820 0.9597 0.2689
vn -0.0820 0.9596 0.2690
vn 0.5535 -0.7879 -0.2700
vn 0.9588 -0.2828 0.0259
vn 0.4727 -0.8315 -0.2918
vn 0.9936 0.0768 0.0831
vn 0.9588 -0.2828 0.0258
vn 0.8768 0.4781 -0.0515
vn 0.9966 -0.0319 0.0766
vn 0.9697 -0.2294 0.0839
vn 0.9966 -0.0319 0.0765
vn 0.9735 -0.1684 -0.1546
vn 0.9985 -0.0546 0.0047
vn 0.9735 -0.1684 -0.1547
vn 0.9922 -0.1153 0.0477
vn 0.5229 -0.8437 0.1212
vn 0.6086 0.7934 0.0082
vn 0.4631 -0.8861 -0.0204
vn 0.9922 -0.1153 0.0476
vn 0.9982 0.0595 -0.0000
vn 0.6810 -0.7313 -0.0387
vn 0.1513 0.7163 0.6812
vn 0.1125 0.7061 0.6991
vn 0.1261 0.7144 0.6883
vn 0.0857 0.7499 0.6560
vn 0.0800 0.7299 0.6788
vn 0.1328 0.8159 0.5627
vn 0.1544 0.7912 0.5917
vn 0.1616 0.7140 0.6812
vn 0.2621 0.8619 0.4340
vn 0.0339 -0.9991 -0.0268
vn 0.1052 -0.9941 0.0281
vn -0.0042 -0.9999 -0.0144
vn 0.0005 -0.9995 -0.0314
vn -0.0493 -0.9988 0.0054
vn 0.0019 -1.0000 -0.0059
vn 0.0070 -0.9986 -0.0517
vn 0.0000 -0.9994 -0.0349
vn 0.0000 -0.9981 -0.0623
vn -0.9925 -0.1019 0.0679
vn -0.9959 -0.0901 0.0041
vn -0.9710 0.2369 -0.0306
vn -0.9458 -0.3097 0.0975
vn -0.9943 -0.0453 0.0967
vn -0.9953 0.0526 0.0816
vn -0.7628 -0.6445 0.0531
vn -0.9991 0.0367 0.0234
vn -0.9595 0.2817 0.0000
vn -0.7255 -0.6881 -0.0117
vn -0.9595 0.2817 -0.0001
vn -0.6469 -0.7626 -0.0030
vn -0.8453 -0.5290 -0.0748
vn -0.9392 0.3282 -0.1007
vn -0.9953 0.0526 0.0817
vn -0.0889 0.9935 -0.0713
vn -0.9392 0.3282 -0.1006
usemtl chinese_food_inst
s 1
f 1/1/1 2/2/1 3/3/1
f 2/2/2 4/4/2 3/3/2
f 5/5/3 6/6/3 7/7/3
f 5/5/4 8/8/5 9/9/6
f 8/8/5 5/5/4 10/10/7
f 10/10/7 5/5/4 7/7/8
f 11/11/9 5/5/10 9/9/9
f 11/11/11 12/12/12 5/5/11
f 5/5/10 12/12/12 6/6/13
f 13/13/14 14/14/15 1/1/16
f 1/1/16 3/3/17 13/13/14
f 3/3/17 15/15/18 13/13/14
f 15/15/18 3/3/17 16/16/19
f 16/16/19 3/3/17 4/4/20
f 16/16/21 4/4/20 17/17/22
f 18/18/23 19/19/24 20/20/25
f 19/19/24 18/18/23 21/21/26
f 22/22/27 21/21/26 18/18/23
f 21/21/26 22/22/28 23/23/29
f 21/21/30 23/23/29 24/24/31
f 21/21/26 24/24/31 25/25/32
f 19/19/24 21/21/26 25/25/32
f 19/19/24 25/25/32 26/26/33
f 25/25/32 24/24/31 27/27/34
f 26/26/33 25/25/32 28/28/35
f 28/28/35 25/25/32 27/27/34
f 28/28/35 27/27/34 29/29/36
f 30/30/37 31/31/38 2/32/39
f 31/31/38 30/30/37 32/33/40
f 30/30/37 19/34/41 32/33/40
f 19/34/41 30/30/37 20/35/42
f 33/36/43 23/37/44 22/38/45
f 23/37/44 33/36/43 34/39/46
f 35/40/47 34/39/46 33/36/43
f 33/36/43 17/41/48 35/40/47
f 30/30/49 2/32/50 36/42/51
f 36/42/51 37/43/52 30/30/49
f 30/30/49 38/44/53 20/35/54
f 38/44/53 30/30/49 37/43/52
f 38/44/55 37/43/52 39/45/56
f 37/43/52 40/46/57 39/45/56
f 40/46/57 37/43/52 41/47/58
f 36/42/59 41/47/58 37/43/52
f 4/4/60 2/2/61 31/48/62
f 31/48/62 42/49/63 4/4/60
f 4/4/60 42/49/63 35/50/64
f 17/17/65 4/4/60 35/50/64
f 12/12/66 43/51/67 6/6/68
f 44/52/69 43/51/67 12/12/66
f 11/11/70 44/52/69 12/12/66
f 44/52/69 45/53/71 43/51/67
f 44/52/69 11/11/70 46/54/72
f 46/54/72 35/50/73 44/52/69
f 44/52/69 31/48/74 45/53/75
f 31/48/76 44/52/69 42/49/77
f 35/50/78 42/49/79 44/52/69
f 47/55/80 26/26/81 28/28/82
f 48/56/83 47/55/84 28/28/82
f 48/56/83 28/28/82 29/29/85
f 48/56/86 49/57/87 47/55/80
f 48/56/86 29/29/85 50/58/88
f 48/56/86 51/59/88 49/57/87
f 48/56/89 50/58/88 52/60/88
f 51/59/88 48/56/88 52/60/88
f 17/41/90 33/36/91 53/61/92
f 33/36/93 54/62/94 53/61/92
f 53/61/92 54/62/94 55/63/95
f 33/36/93 22/38/96 54/62/94
f 55/63/95 54/62/94 56/64/97
f 54/62/94 22/38/96 57/65/98
f 58/66/99 56/64/97 54/62/94
f 57/65/98 58/66/100 54/62/94
f 47/67/101 59/68/102 26/69/103
f 47/67/101 60/70/104 59/68/102
f 59/68/105 19/34/41 26/69/106
f 19/34/41 59/68/102 32/33/40
f 45/71/107 32/33/40 59/68/102
f 32/33/108 45/71/109 31/31/38
f 45/71/107 59/68/102 60/70/104
f 45/71/107 60/70/104 43/72/110
f 60/70/104 6/73/111 43/72/112
f 6/73/111 60/70/104 61/74/113
f 61/74/113 7/75/114 6/73/111
f 47/67/115 61/74/113 60/70/104
f 7/75/114 61/74/113 62/76/116
f 61/74/117 47/67/115 49/77/118
f 61/74/113 51/78/119 62/76/116
f 61/74/113 49/77/118 51/78/119
f 63/79/120 64/80/121 65/81/122
f 66/82/123 63/79/120 65/81/122
f 66/82/123 65/81/122 67/83/124
f 67/83/124 68/84/125 66/82/123
f 18/18/126 63/79/120 66/82/123
f 18/18/126 66/82/123 68/84/125
f 63/79/120 18/18/126 20/20/127
f 22/22/128 18/18/126 68/84/125
f 69/85/129 8/86/130 10/87/131
f 70/88/132 69/85/129 10/87/131
f 70/88/132 10/87/131 7/89/133
f 70/88/132 7/89/133 62/90/134
f 52/91/135 69/85/129 70/88/132
f 52/91/135 70/88/132 62/90/134
f 69/85/129 52/91/135 50/92/136
f 51/93/137 52/91/135 62/90/134
f 34/39/46 35/40/47 46/94/138
f 46/94/138 71/95/139 34/39/140
f 23/37/44 34/39/140 71/95/139
f 71/95/139 24/96/141 23/37/44
f 71/95/139 27/97/142 24/96/141
f 46/94/138 72/98/143 71/95/139
f 27/97/142 71/95/139 72/98/143
f 72/98/143 46/94/138 11/99/144
f 27/97/142 72/98/143 73/100/145
f 73/100/145 29/101/146 27/97/142
f 73/100/145 50/102/147 29/101/148
f 50/102/147 73/100/145 69/103/149
f 8/104/150 69/103/149 73/100/145
f 73/100/145 9/105/151 8/104/150
f 73/100/145 72/98/152 9/105/151
f 72/98/152 11/99/153 9/105/154
